<?xml version="1.0" standalone="no"?>
<!DOCTYPE svg PUBLIC "-//W3C//DTD SVG 20010904//EN"
 "http://www.w3.org/TR/2001/REC-SVG-20010904/DTD/svg10.dtd">
<svg version="1.0" xmlns="http://www.w3.org/2000/svg"
 width="512.000000pt" height="512.000000pt" viewBox="0 0 512.000000 512.000000"
 preserveAspectRatio="xMidYMid meet">

<g transform="translate(0.000000,512.000000) scale(0.100000,-0.100000)"
fill="#000000" stroke="none">
<path d="M263 5101 c-36 -22 -47 -48 -45 -106 5 -114 425 -4374 434 -4398 6
-16 21 -34 32 -42 12 -7 439 -136 949 -285 l928 -273 932 274 c966 284 969
285 981 341 8 32 427 4340 428 4392 1 53 -14 81 -52 101 -26 13 -293 15 -2292
15 -2217 0 -2264 0 -2295 -19z m4417 -203 c1 -16 -403 -4172 -405 -4175 -1 -2
-387 -116 -858 -255 l-856 -251 -858 252 c-471 138 -858 253 -858 254 -3 3
-406 4161 -405 4175 0 9 431 12 2120 12 1689 0 2120 -3 2120 -12z"/>
<path d="M1224 4256 c-43 -19 -64 -53 -64 -103 0 -46 155 -1665 165 -1720 3
-18 18 -43 36 -57 l31 -26 769 0 769 0 0 -27 c0 -38 -42 -447 -46 -452 -8 -8
-300 -91 -323 -91 -23 0 -65 11 -247 66 l-82 24 -12 133 c-14 163 -23 193 -64
218 -29 18 -53 19 -374 19 -380 0 -391 -2 -417 -63 -11 -28 -7 -91 30 -474 46
-470 48 -480 103 -502 15 -5 260 -79 545 -162 l518 -152 522 153 c287 84 532
158 544 163 52 23 50 13 139 921 46 473 84 869 84 879 0 11 -15 34 -34 53
l-34 34 -830 0 c-457 0 -833 3 -835 8 -3 4 -10 66 -16 137 -7 72 -14 140 -17
153 l-4 22 857 1 c638 0 867 3 892 12 65 23 68 32 101 372 35 359 36 392 14
424 -38 53 18 51 -1386 51 -1075 -1 -1308 -3 -1334 -14z m2516 -222 c0 -25
-30 -335 -36 -371 l-5 -33 -867 -1 c-645 0 -876 -3 -902 -12 -20 -7 -41 -25
-53 -44 -18 -31 -17 -37 8 -305 14 -150 30 -290 36 -311 7 -26 21 -44 42 -57
31 -19 57 -20 849 -20 l817 0 -5 -47 c-3 -27 -36 -362 -73 -746 -38 -384 -72
-702 -77 -707 -8 -7 -283 -90 -791 -238 l-123 -36 -452 133 c-249 73 -457 137
-462 142 -8 7 -65 541 -66 617 l0 32 213 -2 212 -3 16 -142 c16 -141 23 -164
61 -184 30 -16 456 -139 481 -139 39 1 460 128 486 148 14 10 29 32 34 48 4
16 23 182 41 369 29 293 32 344 21 372 -27 66 8 63 -850 63 -646 0 -775 2
-775 14 0 7 -31 336 -70 730 -38 395 -70 724 -70 732 0 12 163 14 1180 14
1082 0 1180 -1 1180 -16z"/>
</g>
</svg>
