<?xml version="1.0" standalone="no"?>
<!DOCTYPE svg PUBLIC "-//W3C//DTD SVG 20010904//EN"
 "http://www.w3.org/TR/2001/REC-SVG-20010904/DTD/svg10.dtd">
<svg version="1.0" xmlns="http://www.w3.org/2000/svg"
 width="929.000000pt" height="918.000000pt" viewBox="0 0 929.000000 918.000000"
 preserveAspectRatio="xMidYMid meet">

<g transform="translate(0.000000,918.000000) scale(0.100000,-0.100000)"
fill="#000000" stroke="none">
<path d="M4508 7785 c-31 -8 -83 -27 -117 -42 -33 -15 -552 -341 -1153 -723
-965 -613 -1101 -703 -1163 -765 -80 -81 -125 -151 -163 -257 l-27 -73 -3
-1465 c-2 -1095 0 -1476 9 -1508 25 -90 23 -89 1272 -883 650 -414 1206 -763
1236 -776 160 -71 382 -71 542 0 77 34 2397 1511 2441 1554 20 20 46 58 58 84
20 48 20 49 18 1521 l-3 1473 -27 73 c-38 106 -83 177 -163 257 -62 61 -204
155 -1163 765 -601 382 -1119 707 -1150 722 -31 15 -87 34 -124 42 -82 19
-242 20 -320 1z m1293 -1211 c633 -403 1091 -701 1103 -717 21 -28 21 -29 24
-1351 l2 -1322 -1107 -704 c-1047 -666 -1110 -705 -1153 -705 -43 0 -103 37
-1085 661 -572 364 -1070 681 -1108 704 l-67 42 2 1323 c3 1323 3 1324 24
1352 18 25 2097 1359 2179 1399 17 8 47 12 67 10 28 -3 297 -169 1119 -692z"/>
<path d="M5440 5650 c-461 -44 -750 -306 -750 -680 0 -273 123 -434 423 -555
46 -19 189 -66 318 -105 383 -117 449 -153 449 -243 0 -119 -119 -186 -310
-175 -95 6 -165 31 -214 76 -32 30 -76 116 -76 149 0 55 16 53 -346 53 -184 0
-334 -1 -334 -3 0 -1 5 -41 10 -87 54 -439 409 -690 978 -690 219 0 381 31
530 101 265 123 405 321 419 595 15 271 -101 460 -363 594 -84 43 -270 107
-394 135 -280 64 -361 93 -417 147 -82 79 -9 177 143 194 158 17 297 -57 311
-166 l6 -40 315 0 315 0 -6 73 c-28 325 -255 548 -622 611 -107 19 -281 26
-385 16z"/>
<path d="M3740 4827 l0 -783 -22 -44 c-50 -98 -196 -110 -270 -22 -35 42 -48
109 -48 252 l0 120 -301 0 -302 0 6 -172 c6 -201 24 -287 88 -416 47 -97 135
-197 223 -253 147 -96 372 -141 600 -119 224 20 365 79 492 205 91 89 137 171
176 311 22 78 22 88 26 892 l3 812 -336 0 -335 0 0 -783z"/>
</g>
</svg>
